<svg width="20" height="20" viewBox="0 0 20 20" fill="none" xmlns="http://www.w3.org/2000/svg">
<mask id="mask0" mask-type="alpha" maskUnits="userSpaceOnUse" x="0" y="0" width="19" height="19">
<path fill-rule="evenodd" clip-rule="evenodd" d="M13.0836 14.3765L9.85107 11.144L6.61859 14.3765C6.26154 14.7335 5.68264 14.7335 5.32559 14.3765C4.96854 14.0194 4.96854 13.4405 5.32559 13.0835L8.55808 9.85097L5.32559 6.61848C4.96854 6.26143 4.96854 5.68254 5.32559 5.32549C5.68264 4.96844 6.26153 4.96844 6.61859 5.32549L9.85107 8.55798L13.0836 5.32549C13.4406 4.96844 14.0195 4.96844 14.3766 5.32549C14.7336 5.68254 14.7336 6.26143 14.3766 6.61848L11.1441 9.85097L14.3766 13.0835C14.7336 13.4405 14.7336 14.0194 14.3766 14.3765C14.0195 14.7335 13.4406 14.7335 13.0836 14.3765Z" fill="black"/>
</mask>
<g mask="url(#mask0)">
<path d="M0 0H20V20H0V0Z" fill="black"/>
</g>
</svg>
